<svg width="281" height="121" viewBox="0 0 281 121" fill="none" xmlns="http://www.w3.org/2000/svg">
<path fill-rule="evenodd" clip-rule="evenodd" d="M16.963 44.2692C16.8907 44.281 16.8221 44.2692 16.7567 44.2722C17.3413 44.0585 17.7867 43.5135 18.2216 43.0881C19.0607 42.2781 18.7137 40.6702 18.3407 39.7112C17.9058 38.6008 16.6153 37.505 15.3166 37.1645C15.5746 37.0701 15.849 36.9918 16.1451 36.9555C18.1397 36.7248 19.9421 38.181 20.1699 40.1983C20.3972 42.2205 18.9576 44.0431 16.9632 44.2679L16.963 44.2692ZM14.8756 43.8616C14.7157 43.7716 14.555 43.6831 14.4043 43.5733C14.8861 43.5939 15.3676 43.5208 15.71 43.3791C17.0306 42.8344 17.2889 41.6863 16.8758 40.3616C16.5332 39.2818 15.3105 38.1718 14.1505 38.1824C14.0367 38.1824 13.917 38.2031 13.8039 38.2249C13.8596 38.1523 13.9381 38.0886 14.0047 38.0204C15.445 37.7651 16.8847 38.6599 17.5801 40.0211C18.0721 40.9969 18.0721 42.2527 17.1911 42.9445C16.3788 43.5794 15.8438 43.7558 14.8755 43.8621L14.8756 43.8616ZM12.9387 41.0271C12.8657 40.3992 12.9746 39.785 13.1917 39.2349C14.1236 38.575 15.2434 39.2724 15.8387 40.0427C16.3989 40.7808 16.653 42.1747 15.6625 42.6833C15.0419 43.0018 14.3006 43.0543 13.648 42.8075C13.2755 42.2986 13.0098 41.7025 12.9387 41.0271L12.9387 41.0271ZM22.7492 63.6358L44.5945 41.9284L36.4871 34.0388L29.1309 41.876C29.1309 41.876 27.9655 44.0286 29.4525 46.8308C29.6428 47.198 28.2452 46.4171 27.9603 46.0447C27.7216 46.7525 28.1722 47.0139 27.6705 48.8001C27.6705 48.8001 24.9707 45.1863 27.6186 42.7761C29.2544 41.2841 30.0634 40.0206 30.4415 37.3499C30.3061 37.1607 30.1362 36.9208 29.7521 36.8162C29.6911 36.7956 28.0016 37.5167 26.1675 39.0361C24.3136 40.5706 22.0804 43.5615 19.9006 45.5217C17.2212 47.9366 14.5646 49.0153 14.1184 49.1716C14.1602 49.1406 16.6885 47.7582 19.351 45.3122C21.5684 43.2684 23.77 40.2833 25.769 38.6024C27.3741 37.2446 29.3074 36.3282 29.3844 36.2757C27.8358 34.8936 23.1071 34.2739 21.0457 33.85C15.1385 33.249 12.0948 35.0632 11.0912 36.1369C6.11625 40.225 -3.32134 39.3976 3.48992 44.8462C5.11308 46.0722 7.78941 47.7678 8.42213 48.7071C8.42213 48.7071 9.05821 49.8961 10.1783 50.7911C12.9743 51.8281 15.9059 52.3042 18.8853 52.0319C18.9872 52.0171 19.0908 52.0053 19.1957 51.9956C19.5578 51.9546 19.9204 51.9112 20.2832 51.8536C21.0343 51.581 21.6921 51.1359 20.4125 52.3565C18.7241 53.9226 18.1128 53.5561 20.776 56.9973C20.9573 57.3649 19.3194 56.7724 19.1537 56.7108C19.2057 56.9253 19.9148 58.1765 19.6825 57.994C17.5851 57.7579 17.3564 56.3759 17.1129 55.7988C16.4393 54.169 17.1128 54.6365 15.3266 54.2268C13.1813 53.7717 12.2341 53.4829 10.9959 53.2053C9.73707 52.9597 9.25065 52.5098 8.59697 51.6242C7.54023 52.6033 8.08504 55.8095 8.16168 57.0469C8.2504 58.4224 8.29213 59.9098 8.08989 61.335L5.90904 63.5256L5.96099 63.5781L5.92508 63.625L6.60266 64.3154C6.38991 64.6824 6.19943 65.0756 6.00687 65.4576C4.91986 67.6372 4.38154 69.4126 4.45824 71.8742C4.60504 76.6201 7.795 80.7638 12.5035 81.4559C16.6211 82.0572 20.5745 79.0296 19.6108 75.0962C19.3248 73.9487 18.6419 72.4396 17.0775 71.8374C15.053 71.0574 13.4358 71.7067 12.9532 72.1465C12.6585 72.4239 12.4198 72.8907 12.6326 73.3047C12.653 73.3357 12.6697 73.372 12.6884 73.4098C13.0007 74.0114 13.7567 74.1901 14.228 73.6349C14.2339 73.629 14.6893 73.5305 14.7977 73.488C14.8709 73.4614 14.9275 73.441 14.9952 73.4204C15.2433 73.4514 15.4771 73.5564 15.6839 73.7864C16.0259 74.1581 16.1337 74.6549 16.1185 75.1582C16.0149 75.609 15.8083 76.0447 15.4606 76.389C14.0934 77.7624 12.0256 77.3804 10.8664 75.7763C8.29704 72.2093 11.7411 68.6692 14.4765 68.1504C17.455 67.7 20.0038 69.4808 21.3299 71.7585C22.9519 74.5614 22.5421 77.0706 21.8061 79.8153L36.0797 93.8957L44.2291 85.7178L22.7492 63.6358ZM13.8769 40.3615C13.5032 40.6227 13.7566 40.7652 13.2844 41.0906C13.944 41.4665 13.5855 41.6193 14.0313 41.7493C14.4301 41.6608 14.1045 41.3673 15.0827 41.0375C14.02 40.5923 14.4248 40.414 13.8768 40.3615L13.8769 40.3615Z" fill="#38B261"/>
<path fill-rule="evenodd" clip-rule="evenodd" d="M241.174 42.7283L249.573 34.1138L279.135 63.5989L279.082 63.6541L279.122 63.6951L249.968 93.5913L241.449 85.0958L262.261 63.7613L241.174 42.7283Z" fill="#38B261"/>
<path fill-rule="evenodd" clip-rule="evenodd" d="M48.8365 53.8499C48.9617 53.3801 48.4022 52.925 47.9731 53.1508C47.6322 53.3377 39.4666 57.7249 35.5343 62.6883C32.003 67.143 31.4406 70.0951 33.7652 71.9798C36.0902 73.8616 38.8161 72.6645 42.344 68.2083C46.2777 63.2463 48.7362 54.2321 48.8365 53.8499Z" fill="#FB9A54"/>
<path fill-rule="evenodd" clip-rule="evenodd" d="M0.636275 18.5444C0.157764 18.5013 -0.184838 19.1382 0.108847 19.5259C0.34962 19.8318 6.05805 27.1892 11.5818 30.23C16.5395 32.9617 19.5132 33.0024 20.9359 30.3563C22.3605 27.7097 20.7161 25.2094 15.7568 22.4798C10.233 19.4371 1.02667 18.5781 0.636242 18.5443L0.636275 18.5444Z" fill="#FB9A54"/>
<path fill-rule="evenodd" clip-rule="evenodd" d="M14.7756 0.176632C14.452 -0.184391 13.7711 0.0450064 13.7257 0.530482C13.6959 0.9196 12.9201 10.2383 14.9161 16.2724C16.7062 21.6854 18.8554 23.7628 21.6813 22.8061C24.5058 21.8507 24.9859 18.8862 23.1923 13.4712C21.1978 7.43902 15.0359 0.467883 14.7756 0.176598V0.176632Z" fill="#FB9A54"/>
<path fill-rule="evenodd" clip-rule="evenodd" d="M60.8262 37.9951H67.3295V50.9756H67.4173C68.0609 49.8409 68.7503 48.7954 69.4397 47.7515L75.9871 37.9951H84.0838L74.4802 50.4953L84.5568 67.3503H76.9352L69.7863 54.6762L67.3295 57.7689V67.3503H60.8262V37.9951Z" fill="#202F46"/>
<path fill-rule="evenodd" clip-rule="evenodd" d="M100.02 62.5589C104.454 62.5589 106.997 58.335 106.997 52.5858C106.997 47.3164 104.542 42.7871 100.02 42.7871C95.4975 42.7871 92.9547 47.2292 92.9547 52.7158C92.9547 58.2484 95.5837 62.5589 99.9765 62.5589H100.02ZM99.676 67.8298C91.1047 67.8298 86.022 61.2538 86.022 52.8897C86.022 44.0922 91.6217 37.5162 100.147 37.5162C109.065 37.5162 113.931 44.2667 113.931 52.369C113.931 62.0377 108.202 67.8298 99.7183 67.8298H99.676Z" fill="#202F46"/>
<path fill-rule="evenodd" clip-rule="evenodd" d="M126.29 62.3415C126.849 62.4715 127.797 62.4715 128.574 62.4715C134.561 62.5159 138.48 59.2045 138.48 52.1945C138.48 46.0965 134.949 42.8741 129.262 42.8741C127.843 42.8741 126.849 43.0038 126.29 43.1338V62.3415ZM119.743 38.4317C122.155 37.9961 125.301 37.7772 128.574 37.7772C134.129 37.7772 137.749 38.8213 140.503 40.9123C143.519 43.1782 145.414 46.7492 145.414 51.9757C145.414 57.5955 143.389 61.4719 140.633 63.8654C137.575 66.4353 132.881 67.6552 127.195 67.6552C123.793 67.6552 121.337 67.4365 119.743 67.2197V38.4317Z" fill="#202F46"/>
<path fill-rule="evenodd" clip-rule="evenodd" d="M157.773 37.9951V54.8521C157.773 59.9456 159.713 62.515 163.028 62.515C166.473 62.515 168.369 60.0772 168.369 54.8521V37.9951H174.916V54.4594C174.916 63.5181 170.392 67.8287 162.811 67.8287C155.492 67.8287 151.226 63.6904 151.226 54.3703V37.9951H157.773Z" fill="#202F46"/>
<path fill-rule="evenodd" clip-rule="evenodd" d="M182.15 37.9951H188.697V61.7755H200.239V67.3503H182.15V37.9951Z" fill="#202F46"/>
<path fill-rule="evenodd" clip-rule="evenodd" d="M219.963 54.8517L218.155 48.622C217.682 46.8808 217.164 44.6599 216.735 42.9596H216.604C216.218 44.7022 215.742 46.9237 215.312 48.622L213.548 54.8517H219.963ZM212.6 59.8151L210.574 67.3498H203.77L212.642 37.9946H221.214L230.258 67.3498H223.196L220.953 59.8151H212.6Z" fill="#202F46"/>
<path d="M66.5275 86.6445H67.8459C67.8589 87.7773 68.217 88.6562 68.9201 89.2812C69.6232 89.9062 70.6128 90.2188 71.8888 90.2188C73.0086 90.2188 73.8875 89.9681 74.5256 89.4668C75.1701 88.959 75.4923 88.2624 75.4923 87.377C75.4923 86.5566 75.2677 85.9316 74.8185 85.502C74.3693 85.0723 73.4741 84.6849 72.133 84.3398L70.7658 83.998C69.2944 83.6204 68.2756 83.1419 67.7091 82.5625C67.1492 81.9766 66.8693 81.1562 66.8693 80.1016C66.8693 78.9362 67.2957 78.002 68.1486 77.2988C69.0015 76.5957 70.1408 76.2441 71.5666 76.2441C73.077 76.2441 74.2554 76.6283 75.1017 77.3965C75.9546 78.1647 76.3908 79.2389 76.4103 80.6191H75.0724C75.0529 79.597 74.7339 78.8092 74.1154 78.2559C73.4969 77.696 72.6278 77.416 71.508 77.416C70.4533 77.416 69.6362 77.6536 69.0568 78.1289C68.4774 78.6042 68.1877 79.2747 68.1877 80.1406C68.1877 80.7982 68.3765 81.319 68.7541 81.7031C69.1317 82.0807 69.7567 82.3802 70.6291 82.6016L72.3088 83.0215C73.9689 83.4382 75.1343 83.9655 75.8048 84.6035C76.4754 85.2415 76.8107 86.1204 76.8107 87.2402C76.8107 88.5293 76.368 89.5449 75.4826 90.2871C74.6037 91.0293 73.3992 91.4004 71.8693 91.4004C70.1571 91.4004 68.8387 91 67.9142 90.1992C66.9897 89.3919 66.5275 88.2396 66.5275 86.7422V86.6445ZM80.6584 77.6406V80.6191H82.5822V81.5957H80.6584V89.1641C80.6584 89.6068 80.7137 89.8997 80.8244 90.043C80.9351 90.1862 81.1336 90.2578 81.4201 90.2578C81.5438 90.2578 81.6838 90.248 81.84 90.2285C81.9963 90.2025 82.2404 90.1536 82.5724 90.082L82.5822 91.0391C82.2892 91.1172 82.0223 91.1725 81.7814 91.2051C81.5405 91.2441 81.3127 91.2637 81.0978 91.2637C80.4989 91.2637 80.0757 91.1139 79.8283 90.8145C79.5809 90.5085 79.4572 89.9583 79.4572 89.1641V81.5957H78.0412V80.6191H79.4572V77.6406H80.6584ZM84.506 91V80.6191H85.6681V82.4355C85.9676 81.7389 86.381 81.2181 86.9084 80.873C87.4422 80.528 88.0965 80.3555 88.8713 80.3555H89.008V81.6152H88.8517C87.8166 81.6152 87.0386 81.9212 86.5177 82.5332C86.0034 83.1452 85.7463 84.0599 85.7463 85.2773V91H84.506ZM91.381 85.8242C91.381 87.2174 91.687 88.2982 92.299 89.0664C92.9175 89.8346 93.7834 90.2188 94.8966 90.2188C96.0229 90.2188 96.8921 89.8379 97.5041 89.0762C98.116 88.3145 98.422 87.2305 98.422 85.8242C98.422 84.418 98.116 83.334 97.5041 82.5723C96.8921 81.804 96.0229 81.4199 94.8966 81.4199C93.7834 81.4199 92.9175 81.804 92.299 82.5723C91.687 83.3405 91.381 84.4245 91.381 85.8242ZM90.1408 85.8242C90.1408 84.0859 90.5542 82.7415 91.381 81.791C92.2144 80.834 93.3862 80.3555 94.8966 80.3555C96.4136 80.3555 97.5887 80.834 98.422 81.791C99.2619 82.7415 99.6818 84.0859 99.6818 85.8242C99.6818 87.5495 99.2651 88.8874 98.4318 89.8379C97.5985 90.7884 96.4201 91.2637 94.8966 91.2637C93.3862 91.2637 92.2144 90.7917 91.381 89.8477C90.5542 88.8971 90.1408 87.556 90.1408 85.8242ZM101.83 91V80.6191H102.992V82.2793C103.383 81.6413 103.865 81.1628 104.438 80.8438C105.011 80.5182 105.675 80.3555 106.43 80.3555C107.146 80.3555 107.774 80.4824 108.315 80.7363C108.855 80.9902 109.268 81.3516 109.555 81.8203C109.705 82.0612 109.812 82.3542 109.877 82.6992C109.942 83.0378 109.975 83.5977 109.975 84.3789V84.6816V91H108.735V84.5645C108.735 83.347 108.546 82.5234 108.168 82.0938C107.797 81.6576 107.139 81.4395 106.195 81.4395C105.225 81.4395 104.457 81.7487 103.891 82.3672C103.331 82.9792 103.051 83.8158 103.051 84.877V91H101.83ZM115.834 93.0215C115.535 93.8288 115.17 94.4017 114.74 94.7402C114.317 95.0853 113.754 95.2578 113.051 95.2578C112.882 95.2578 112.732 95.248 112.602 95.2285C112.472 95.2155 112.341 95.1895 112.211 95.1504V94.0664C112.432 94.099 112.605 94.1217 112.729 94.1348C112.859 94.1543 112.96 94.1641 113.031 94.1641C113.468 94.1641 113.809 94.0501 114.057 93.8223C114.311 93.5944 114.571 93.1257 114.838 92.416L115.317 91.1172L111.274 80.6191H112.553L115.912 89.4766L119.194 80.6191H120.434L115.834 93.0215ZM127.387 78.4219V76.6152H128.578V78.4219H127.387ZM127.387 91V80.6191H128.578V91H127.387ZM131.381 91V80.6191H132.543V82.2793C132.934 81.6413 133.416 81.1628 133.988 80.8438C134.561 80.5182 135.225 80.3555 135.981 80.3555C136.697 80.3555 137.325 80.4824 137.865 80.7363C138.406 80.9902 138.819 81.3516 139.106 81.8203C139.255 82.0612 139.363 82.3542 139.428 82.6992C139.493 83.0378 139.526 83.5977 139.526 84.3789V84.6816V91H138.285V84.5645C138.285 83.347 138.097 82.5234 137.719 82.0938C137.348 81.6576 136.69 81.4395 135.746 81.4395C134.776 81.4395 134.008 81.7487 133.442 82.3672C132.882 82.9792 132.602 83.8158 132.602 84.877V91H131.381ZM143.744 77.6406V80.6191H145.668V81.5957H143.744V89.1641C143.744 89.6068 143.8 89.8997 143.91 90.043C144.021 90.1862 144.22 90.2578 144.506 90.2578C144.63 90.2578 144.77 90.248 144.926 90.2285C145.082 90.2025 145.326 90.1536 145.658 90.082L145.668 91.0391C145.375 91.1172 145.108 91.1725 144.867 91.2051C144.626 91.2441 144.399 91.2637 144.184 91.2637C143.585 91.2637 143.162 91.1139 142.914 90.8145C142.667 90.5085 142.543 89.9583 142.543 89.1641V81.5957H141.127V80.6191H142.543V77.6406H143.744ZM148.295 86.0391V86.0977C148.295 87.3672 148.601 88.3796 149.213 89.1348C149.825 89.8835 150.645 90.2578 151.674 90.2578C152.488 90.2578 153.168 90.0397 153.715 89.6035C154.262 89.1608 154.594 88.5586 154.711 87.7969H155.912C155.782 88.8516 155.326 89.6979 154.545 90.3359C153.764 90.9674 152.781 91.2832 151.596 91.2832C150.183 91.2832 149.076 90.8047 148.276 89.8477C147.475 88.8906 147.074 87.5625 147.074 85.8633C147.074 84.1315 147.475 82.7806 148.276 81.8105C149.083 80.8405 150.203 80.3555 151.635 80.3555C153.028 80.3555 154.112 80.821 154.887 81.752C155.668 82.6764 156.059 83.972 156.059 85.6387V86.0391H148.295ZM148.315 85.0723L154.819 85.082C154.766 83.9362 154.454 83.0378 153.881 82.3867C153.315 81.7292 152.559 81.4004 151.615 81.4004C150.665 81.4004 149.89 81.7324 149.291 82.3965C148.699 83.0605 148.373 83.9525 148.315 85.0723ZM158.197 91V80.6191H159.36V82.4355C159.659 81.7389 160.072 81.2181 160.6 80.873C161.134 80.528 161.788 80.3555 162.563 80.3555H162.699V81.6152H162.543C161.508 81.6152 160.73 81.9212 160.209 82.5332C159.695 83.1452 159.438 84.0599 159.438 85.2773V91H158.197ZM164.35 91V80.6191H165.512V82.2793C165.903 81.6413 166.384 81.1628 166.957 80.8438C167.53 80.5182 168.194 80.3555 168.949 80.3555C169.666 80.3555 170.294 80.4824 170.834 80.7363C171.375 80.9902 171.788 81.3516 172.074 81.8203C172.224 82.0612 172.332 82.3542 172.397 82.6992C172.462 83.0378 172.494 83.5977 172.494 84.3789V84.6816V91H171.254V84.5645C171.254 83.347 171.065 82.5234 170.688 82.0938C170.317 81.6576 169.659 81.4395 168.715 81.4395C167.745 81.4395 166.977 81.7487 166.41 82.3672C165.85 82.9792 165.57 83.8158 165.57 84.877V91H164.35ZM175.834 86.0391V86.0977C175.834 87.3672 176.14 88.3796 176.752 89.1348C177.364 89.8835 178.184 90.2578 179.213 90.2578C180.027 90.2578 180.707 90.0397 181.254 89.6035C181.801 89.1608 182.133 88.5586 182.25 87.7969H183.451C183.321 88.8516 182.865 89.6979 182.084 90.3359C181.303 90.9674 180.32 91.2832 179.135 91.2832C177.722 91.2832 176.615 90.8047 175.815 89.8477C175.014 88.8906 174.613 87.5625 174.613 85.8633C174.613 84.1315 175.014 82.7806 175.815 81.8105C176.622 80.8405 177.742 80.3555 179.174 80.3555C180.567 80.3555 181.651 80.821 182.426 81.752C183.207 82.6764 183.598 83.972 183.598 85.6387V86.0391H175.834ZM175.854 85.0723L182.358 85.082C182.305 83.9362 181.993 83.0378 181.42 82.3867C180.854 81.7292 180.098 81.4004 179.154 81.4004C178.204 81.4004 177.429 81.7324 176.83 82.3965C176.238 83.0605 175.912 83.9525 175.854 85.0723ZM187.319 77.6406V80.6191H189.242V81.5957H187.319V89.1641C187.319 89.6068 187.374 89.8997 187.485 90.043C187.595 90.1862 187.794 90.2578 188.08 90.2578C188.204 90.2578 188.344 90.248 188.5 90.2285C188.656 90.2025 188.901 90.1536 189.233 90.082L189.242 91.0391C188.949 91.1172 188.682 91.1725 188.442 91.2051C188.201 91.2441 187.973 91.2637 187.758 91.2637C187.159 91.2637 186.736 91.1139 186.488 90.8145C186.241 90.5085 186.117 89.9583 186.117 89.1641V81.5957H184.701V80.6191H186.117V77.6406H187.319ZM191.889 85.8242C191.889 87.2174 192.195 88.2982 192.807 89.0664C193.425 89.8346 194.291 90.2188 195.404 90.2188C196.531 90.2188 197.4 89.8379 198.012 89.0762C198.624 88.3145 198.93 87.2305 198.93 85.8242C198.93 84.418 198.624 83.334 198.012 82.5723C197.4 81.804 196.531 81.4199 195.404 81.4199C194.291 81.4199 193.425 81.804 192.807 82.5723C192.195 83.3405 191.889 84.4245 191.889 85.8242ZM190.649 85.8242C190.649 84.0859 191.062 82.7415 191.889 81.791C192.722 80.834 193.894 80.3555 195.404 80.3555C196.921 80.3555 198.097 80.834 198.93 81.791C199.77 82.7415 200.19 84.0859 200.19 85.8242C200.19 87.5495 199.773 88.8874 198.94 89.8379C198.106 90.7884 196.928 91.2637 195.404 91.2637C193.894 91.2637 192.722 90.7917 191.889 89.8477C191.062 88.8971 190.649 87.556 190.649 85.8242ZM204.262 91L201 80.6191H202.221L204.897 89.3008L207.279 80.6191H208.617L210.961 89.3008L213.617 80.6191H214.838L211.576 91H210.297L207.904 82.3184L205.522 91H204.262ZM216.889 86.0391V86.0977C216.889 87.3672 217.195 88.3796 217.807 89.1348C218.419 89.8835 219.239 90.2578 220.268 90.2578C221.082 90.2578 221.762 90.0397 222.309 89.6035C222.856 89.1608 223.188 88.5586 223.305 87.7969H224.506C224.376 88.8516 223.92 89.6979 223.139 90.3359C222.358 90.9674 221.375 91.2832 220.19 91.2832C218.777 91.2832 217.67 90.8047 216.869 89.8477C216.069 88.8906 215.668 87.5625 215.668 85.8633C215.668 84.1315 216.069 82.7806 216.869 81.8105C217.677 80.8405 218.796 80.3555 220.229 80.3555C221.622 80.3555 222.706 80.821 223.481 81.752C224.262 82.6764 224.652 83.972 224.652 85.6387V86.0391H216.889ZM216.908 85.0723L223.412 85.082C223.36 83.9362 223.048 83.0378 222.475 82.3867C221.908 81.7292 221.153 81.4004 220.209 81.4004C219.259 81.4004 218.484 81.7324 217.885 82.3965C217.292 83.0605 216.967 83.9525 216.908 85.0723Z" fill="#202F46"/>
</svg>
