<svg width="190" height="67" viewBox="0 0 190 67" fill="none" xmlns="http://www.w3.org/2000/svg">
<path fill-rule="evenodd" clip-rule="evenodd" d="M11.5036 30.0006C11.4545 30.0086 11.408 30.0006 11.3636 30.0026C11.7601 29.8578 12.0622 29.4885 12.3571 29.2002C12.9261 28.6513 12.6908 27.5616 12.4378 26.9117C12.1429 26.1592 11.2678 25.4166 10.387 25.1858C10.562 25.1218 10.748 25.0688 10.9489 25.0442C12.3015 24.8878 13.5238 25.8747 13.6783 27.2418C13.8324 28.6122 12.8562 29.8474 11.5037 29.9997L11.5036 30.0006ZM10.0879 29.7244C9.97948 29.6634 9.87054 29.6034 9.76832 29.529C10.0951 29.543 10.4216 29.4934 10.6538 29.3974C11.5494 29.0283 11.7245 28.2502 11.4444 27.3525C11.2121 26.6207 10.3829 25.8684 9.59621 25.8757C9.51902 25.8757 9.43788 25.8897 9.36114 25.9045C9.39895 25.8553 9.45219 25.8121 9.49731 25.7659C10.4741 25.5929 11.4505 26.1992 11.922 27.1217C12.2557 27.783 12.2557 28.634 11.6582 29.1028C11.1073 29.5331 10.7445 29.6526 10.0879 29.7247L10.0879 29.7244ZM8.7744 27.8035C8.72492 27.378 8.79875 26.9617 8.946 26.5889C9.57796 26.1417 10.3374 26.6143 10.7411 27.1363C11.121 27.6366 11.2933 28.5812 10.6216 28.9258C10.2007 29.1417 9.698 29.1772 9.25544 29.01C9.00284 28.6652 8.82262 28.2612 8.77446 27.8034L8.7744 27.8035ZM15.4275 43.125L30.2419 28.4143L24.7439 23.0676L19.7552 28.3787C19.7552 28.3787 18.9649 29.8376 19.9733 31.7365C20.1024 31.9854 19.1546 31.4562 18.9614 31.2038C18.7995 31.6835 19.1051 31.8607 18.7649 33.0711C18.7649 33.0711 16.934 30.6221 18.7296 28.9888C19.839 27.9776 20.3876 27.1214 20.644 25.3115C20.5522 25.1833 20.437 25.0207 20.1765 24.9498C20.1351 24.9358 18.9894 25.4245 17.7456 26.4542C16.4884 27.4941 14.9739 29.521 13.4956 30.8494C11.6786 32.4859 9.87704 33.217 9.57448 33.3229C9.60278 33.3019 11.3174 32.365 13.1229 30.7074C14.6267 29.3224 16.1197 27.2994 17.4754 26.1603C18.5639 25.2401 19.8749 24.6191 19.9271 24.5835C18.8769 23.6469 15.6702 23.2269 14.2722 22.9396C10.2663 22.5323 8.20213 23.7618 7.52155 24.4895C4.14777 27.2599 -2.25237 26.6992 2.36671 30.3916C3.46746 31.2225 5.28242 32.3715 5.7115 33.0081C5.7115 33.0081 6.14286 33.8139 6.90243 34.4204C8.79857 35.1232 10.7866 35.4458 12.8072 35.2613C12.8762 35.2513 12.9465 35.2433 13.0177 35.2367C13.2632 35.2089 13.5091 35.1795 13.7552 35.1405C14.2645 34.9557 14.7106 34.6541 13.8428 35.4813C12.6978 36.5425 12.2833 36.2942 14.0894 38.6263C14.2123 38.8754 13.1015 38.4739 12.9892 38.4321C13.0244 38.5775 13.5053 39.4254 13.3478 39.3017C11.9254 39.1417 11.7703 38.2051 11.6051 37.8141C11.1484 36.7095 11.6051 37.0264 10.3938 36.7487C8.93895 36.4403 8.29663 36.2446 7.45691 36.0564C6.60324 35.89 6.27337 35.5851 5.83008 34.9849C5.11344 35.6485 5.48291 37.8213 5.53488 38.6598C5.59505 39.592 5.62335 40.6 5.48619 41.5658L4.00724 43.0504L4.04247 43.086L4.01812 43.1178L4.47763 43.5856C4.33335 43.8343 4.20417 44.1008 4.07359 44.3597C3.33643 45.8367 2.97136 47.0399 3.02338 48.7081C3.12293 51.9243 5.28622 54.7325 8.47931 55.2015C11.2717 55.609 13.9527 53.5572 13.2991 50.8916C13.1052 50.1139 12.6421 49.0912 11.5812 48.6832C10.2082 48.1546 9.11151 48.5946 8.78425 48.8926C8.5844 49.0806 8.42254 49.397 8.56686 49.6775C8.58072 49.6985 8.592 49.7231 8.60466 49.7487C8.81647 50.1564 9.32918 50.2776 9.6488 49.9013C9.65275 49.8973 9.9616 49.8305 10.0351 49.8017C10.0848 49.7837 10.1232 49.7699 10.1691 49.7559C10.3373 49.7769 10.4959 49.8481 10.6361 50.004C10.868 50.2558 10.9412 50.5926 10.9308 50.9336C10.8605 51.2391 10.7204 51.5344 10.4846 51.7677C9.55752 52.6985 8.15524 52.4396 7.36907 51.3525C5.62668 48.9352 7.96229 46.5361 9.81726 46.1846C11.8372 45.8793 13.5656 47.0861 14.465 48.6297C15.5649 50.5292 15.287 52.2296 14.7879 54.0897L24.4676 63.6318L29.9941 58.0897L15.4275 43.125ZM9.41066 27.3524C9.15725 27.5294 9.32912 27.626 9.00885 27.8465C9.45618 28.1013 9.21304 28.2048 9.51536 28.2929C9.78585 28.2329 9.56504 28.034 10.2284 27.8105C9.50772 27.5088 9.78227 27.388 9.41064 27.3524L9.41066 27.3524Z" fill="#38B261"/>
<path fill-rule="evenodd" clip-rule="evenodd" d="M163.553 28.9563L169.249 23.1184L189.297 43.1001L189.261 43.1375L189.288 43.1653L169.517 63.4255L163.74 57.6682L177.853 43.2101L163.553 28.9563Z" fill="#38B261"/>
<path fill-rule="evenodd" clip-rule="evenodd" d="M33.1187 36.4933C33.2036 36.1749 32.8242 35.8665 32.5333 36.0196C32.302 36.1462 26.7645 39.1194 24.0978 42.483C21.7031 45.5019 21.3217 47.5024 22.8981 48.7797C24.4748 50.055 26.3234 49.2437 28.7159 46.2238C31.3835 42.8611 33.0507 36.7523 33.1187 36.4933Z" fill="#FB9A54"/>
<path fill-rule="evenodd" clip-rule="evenodd" d="M0.431492 12.5673C0.106988 12.5381 -0.125349 12.9697 0.0738147 13.2325C0.237096 13.4397 4.10829 18.4257 7.85426 20.4864C11.2163 22.3377 13.2329 22.3653 14.1977 20.572C15.1639 18.7785 14.0487 17.0841 10.6855 15.2343C6.93953 13.1722 0.696243 12.5901 0.43147 12.5672L0.431492 12.5673Z" fill="#FB9A54"/>
<path fill-rule="evenodd" clip-rule="evenodd" d="M10.0202 0.119701C9.80077 -0.124959 9.33897 0.0305002 9.30822 0.3595C9.28803 0.6232 8.76189 6.93836 10.1155 11.0276C11.3294 14.6959 12.7869 16.1037 14.7033 15.4553C16.6188 14.8079 16.9444 12.7989 15.728 9.12922C14.3755 5.04132 10.1967 0.317078 10.0202 0.119678V0.119701Z" fill="#FB9A54"/>
<path fill-rule="evenodd" clip-rule="evenodd" d="M41.2495 25.7488H45.6598V34.5455H45.7193C46.1558 33.7765 46.6233 33.068 47.0908 32.3605L51.531 25.7488H57.0217L50.509 34.22L57.3425 45.6424H52.1739L47.3258 37.0533L45.6598 39.1492V45.6424H41.2495V25.7488Z" fill="#202F46"/>
<path fill-rule="evenodd" clip-rule="evenodd" d="M67.8293 42.3953C70.836 42.3953 72.5605 39.5328 72.5605 35.6366C72.5605 32.0656 70.8955 28.9962 67.8293 28.9962C64.762 28.9962 63.0377 32.0065 63.0377 35.7247C63.0377 39.4741 64.8205 42.3953 67.7995 42.3953H67.8293ZM67.5957 45.9672C61.7831 45.9672 58.3362 41.5108 58.3362 35.8426C58.3362 29.8806 62.1337 25.4242 67.9152 25.4242C73.9631 25.4242 77.2629 29.9989 77.2629 35.4897C77.2629 42.042 73.3776 45.9672 67.6244 45.9672H67.5957Z" fill="#202F46"/>
<path fill-rule="evenodd" clip-rule="evenodd" d="M85.6442 42.248C86.0232 42.3361 86.6661 42.3361 87.1931 42.3361C91.253 42.3661 93.9112 40.1221 93.9112 35.3714C93.9112 31.2389 91.5163 29.0552 87.6597 29.0552C86.6973 29.0552 86.0232 29.1431 85.6442 29.2312V42.248ZM81.2041 26.0446C82.8404 25.7494 84.9738 25.6011 87.1931 25.6011C90.9606 25.6011 93.4152 26.3086 95.2827 27.7257C97.3279 29.2613 98.6135 31.6812 98.6135 35.2232C98.6135 39.0316 97.2396 41.6586 95.371 43.2807C93.2969 45.0222 90.1141 45.849 86.2581 45.849C83.9506 45.849 82.2856 45.7008 81.2041 45.5538V26.0446Z" fill="#202F46"/>
<path fill-rule="evenodd" clip-rule="evenodd" d="M106.994 25.7488V37.1725C106.994 40.6243 108.31 42.3655 110.558 42.3655C112.894 42.3655 114.18 40.7135 114.18 37.1725V25.7488H118.62V36.9064C118.62 43.0454 115.552 45.9666 110.411 45.9666C105.447 45.9666 102.554 43.1621 102.554 36.846V25.7488H106.994Z" fill="#202F46"/>
<path fill-rule="evenodd" clip-rule="evenodd" d="M123.525 25.7488H127.965V41.8644H135.792V45.6424H123.525V25.7488Z" fill="#202F46"/>
<path fill-rule="evenodd" clip-rule="evenodd" d="M149.169 37.1722L147.943 32.9505C147.622 31.7705 147.27 30.2653 146.979 29.1131H146.891C146.629 30.294 146.306 31.7995 146.014 32.9505L144.818 37.1722H149.169ZM144.175 40.5358L142.801 45.642H138.187L144.204 25.7484H150.017L156.15 45.642H151.361L149.84 40.5358H144.175Z" fill="#202F46"/>
<path d="M43.1973 59.9512H44.1201C44.1292 60.7441 44.3799 61.3594 44.8721 61.7969C45.3643 62.2344 46.057 62.4531 46.9502 62.4531C47.734 62.4531 48.3493 62.2777 48.7959 61.9268C49.2471 61.5713 49.4727 61.0837 49.4727 60.4639C49.4727 59.8896 49.3154 59.4521 49.001 59.1514C48.6865 58.8506 48.0599 58.5794 47.1211 58.3379L46.1641 58.0986C45.1341 57.8343 44.4209 57.4993 44.0244 57.0938C43.6325 56.6836 43.4365 56.1094 43.4365 55.3711C43.4365 54.5553 43.735 53.9014 44.332 53.4092C44.929 52.917 45.7266 52.6709 46.7246 52.6709C47.7819 52.6709 48.6068 52.9398 49.1992 53.4775C49.7962 54.0153 50.1016 54.7673 50.1152 55.7334H49.1787C49.165 55.0179 48.9417 54.4665 48.5088 54.0791C48.0758 53.6872 47.4674 53.4912 46.6836 53.4912C45.9453 53.4912 45.3734 53.6576 44.9678 53.9902C44.5622 54.3229 44.3594 54.7923 44.3594 55.3984C44.3594 55.8587 44.4915 56.2233 44.7559 56.4922C45.0202 56.7565 45.4577 56.9661 46.0684 57.1211L47.2441 57.415C48.4062 57.7067 49.222 58.0758 49.6914 58.5225C50.1608 58.9691 50.3955 59.5843 50.3955 60.3682C50.3955 61.2705 50.0856 61.9814 49.4658 62.501C48.8506 63.0205 48.0075 63.2803 46.9365 63.2803C45.738 63.2803 44.8151 63 44.168 62.4395C43.5208 61.8743 43.1973 61.0677 43.1973 60.0195V59.9512ZM53.0889 53.6484V55.7334H54.4355V56.417H53.0889V61.7148C53.0889 62.0247 53.1276 62.2298 53.2051 62.3301C53.2826 62.4303 53.4215 62.4805 53.6221 62.4805C53.7087 62.4805 53.8066 62.4736 53.916 62.46C54.0254 62.4417 54.1963 62.4076 54.4287 62.3574L54.4355 63.0273C54.2305 63.082 54.0436 63.1208 53.875 63.1436C53.7064 63.1709 53.5469 63.1846 53.3965 63.1846C52.9772 63.1846 52.681 63.0798 52.5078 62.8701C52.3346 62.6559 52.248 62.2708 52.248 61.7148V56.417H51.2568V55.7334H52.248V53.6484H53.0889ZM55.7822 63V55.7334H56.5957V57.0049C56.8053 56.5173 57.0947 56.1527 57.4639 55.9111C57.8376 55.6696 58.2956 55.5488 58.8379 55.5488H58.9336V56.4307H58.8242C58.0996 56.4307 57.555 56.6449 57.1904 57.0732C56.8304 57.5016 56.6504 58.1419 56.6504 58.9941V63H55.7822ZM60.5947 59.377C60.5947 60.3522 60.8089 61.1087 61.2373 61.6465C61.6702 62.1842 62.2764 62.4531 63.0557 62.4531C63.8441 62.4531 64.4525 62.1865 64.8809 61.6533C65.3092 61.1201 65.5234 60.3613 65.5234 59.377C65.5234 58.3926 65.3092 57.6338 64.8809 57.1006C64.4525 56.5628 63.8441 56.2939 63.0557 56.2939C62.2764 56.2939 61.6702 56.5628 61.2373 57.1006C60.8089 57.6383 60.5947 58.3971 60.5947 59.377ZM59.7266 59.377C59.7266 58.1602 60.016 57.2191 60.5947 56.5537C61.1781 55.8838 61.9984 55.5488 63.0557 55.5488C64.1175 55.5488 64.9401 55.8838 65.5234 56.5537C66.1113 57.2191 66.4053 58.1602 66.4053 59.377C66.4053 60.5846 66.1136 61.5212 65.5303 62.1865C64.9469 62.8519 64.1221 63.1846 63.0557 63.1846C61.9984 63.1846 61.1781 62.8542 60.5947 62.1934C60.016 61.528 59.7266 60.5892 59.7266 59.377ZM67.9092 63V55.7334H68.7227V56.8955C68.9961 56.4489 69.3333 56.1139 69.7344 55.8906C70.1354 55.6628 70.6003 55.5488 71.1289 55.5488C71.6302 55.5488 72.07 55.6377 72.4482 55.8154C72.8265 55.9932 73.1159 56.2461 73.3164 56.5742C73.4212 56.7428 73.4964 56.9479 73.542 57.1895C73.5876 57.4264 73.6104 57.8184 73.6104 58.3652V58.5771V63H72.7422V58.4951C72.7422 57.6429 72.61 57.0664 72.3457 56.7656C72.0859 56.4603 71.6257 56.3076 70.9648 56.3076C70.2858 56.3076 69.748 56.5241 69.3516 56.957C68.9596 57.3854 68.7637 57.971 68.7637 58.7139V63H67.9092ZM77.7119 64.415C77.5023 64.9801 77.2471 65.3812 76.9463 65.6182C76.6501 65.8597 76.2559 65.9805 75.7637 65.9805C75.6452 65.9805 75.5404 65.9736 75.4492 65.96C75.3581 65.9508 75.2669 65.9326 75.1758 65.9053V65.1465C75.3307 65.1693 75.4515 65.1852 75.5381 65.1943C75.6292 65.208 75.6999 65.2148 75.75 65.2148C76.0553 65.2148 76.2946 65.1351 76.4678 64.9756C76.6455 64.8161 76.8278 64.488 77.0146 63.9912L77.3496 63.082L74.5195 55.7334H75.415L77.7666 61.9336L80.0635 55.7334H80.9316L77.7119 64.415ZM85.7988 54.1953V52.9307H86.6328V54.1953H85.7988ZM85.7988 63V55.7334H86.6328V63H85.7988ZM88.5947 63V55.7334H89.4082V56.8955C89.6816 56.4489 90.0189 56.1139 90.4199 55.8906C90.821 55.6628 91.2858 55.5488 91.8145 55.5488C92.3158 55.5488 92.7555 55.6377 93.1338 55.8154C93.512 55.9932 93.8014 56.2461 94.002 56.5742C94.1068 56.7428 94.182 56.9479 94.2275 57.1895C94.2731 57.4264 94.2959 57.8184 94.2959 58.3652V58.5771V63H93.4277V58.4951C93.4277 57.6429 93.2956 57.0664 93.0312 56.7656C92.7715 56.4603 92.3112 56.3076 91.6504 56.3076C90.9714 56.3076 90.4336 56.5241 90.0371 56.957C89.6452 57.3854 89.4492 57.971 89.4492 58.7139V63H88.5947ZM97.249 53.6484V55.7334H98.5957V56.417H97.249V61.7148C97.249 62.0247 97.2878 62.2298 97.3652 62.3301C97.4427 62.4303 97.5817 62.4805 97.7822 62.4805C97.8688 62.4805 97.9668 62.4736 98.0762 62.46C98.1855 62.4417 98.3564 62.4076 98.5889 62.3574L98.5957 63.0273C98.3906 63.082 98.2038 63.1208 98.0352 63.1436C97.8665 63.1709 97.707 63.1846 97.5566 63.1846C97.1374 63.1846 96.8411 63.0798 96.668 62.8701C96.4948 62.6559 96.4082 62.2708 96.4082 61.7148V56.417H95.417V55.7334H96.4082V53.6484H97.249ZM100.435 59.5273V59.5684C100.435 60.457 100.649 61.1657 101.077 61.6943C101.506 62.2184 102.08 62.4805 102.8 62.4805C103.369 62.4805 103.846 62.3278 104.229 62.0225C104.611 61.7126 104.844 61.291 104.926 60.7578H105.767C105.675 61.4961 105.356 62.0885 104.81 62.5352C104.263 62.9772 103.575 63.1982 102.745 63.1982C101.756 63.1982 100.981 62.8633 100.421 62.1934C99.8604 61.5234 99.5801 60.5938 99.5801 59.4043C99.5801 58.1921 99.8604 57.2464 100.421 56.5674C100.986 55.8883 101.77 55.5488 102.772 55.5488C103.748 55.5488 104.507 55.8747 105.049 56.5264C105.596 57.1735 105.869 58.0804 105.869 59.2471V59.5273H100.435ZM100.448 58.8506L105.001 58.8574C104.965 58.0553 104.746 57.4264 104.345 56.9707C103.948 56.5104 103.42 56.2803 102.759 56.2803C102.093 56.2803 101.551 56.5127 101.132 56.9775C100.717 57.4424 100.489 58.0667 100.448 58.8506ZM107.366 63V55.7334H108.18V57.0049C108.389 56.5173 108.679 56.1527 109.048 55.9111C109.422 55.6696 109.88 55.5488 110.422 55.5488H110.518V56.4307H110.408C109.684 56.4307 109.139 56.6449 108.774 57.0732C108.414 57.5016 108.234 58.1419 108.234 58.9941V63H107.366ZM111.673 63V55.7334H112.486V56.8955C112.76 56.4489 113.097 56.1139 113.498 55.8906C113.899 55.6628 114.364 55.5488 114.893 55.5488C115.394 55.5488 115.834 55.6377 116.212 55.8154C116.59 55.9932 116.88 56.2461 117.08 56.5742C117.185 56.7428 117.26 56.9479 117.306 57.1895C117.351 57.4264 117.374 57.8184 117.374 58.3652V58.5771V63H116.506V58.4951C116.506 57.6429 116.374 57.0664 116.109 56.7656C115.85 56.4603 115.389 56.3076 114.729 56.3076C114.049 56.3076 113.512 56.5241 113.115 56.957C112.723 57.3854 112.527 57.971 112.527 58.7139V63H111.673ZM119.712 59.5273V59.5684C119.712 60.457 119.926 61.1657 120.354 61.6943C120.783 62.2184 121.357 62.4805 122.077 62.4805C122.647 62.4805 123.123 62.3278 123.506 62.0225C123.889 61.7126 124.121 61.291 124.203 60.7578H125.044C124.953 61.4961 124.634 62.0885 124.087 62.5352C123.54 62.9772 122.852 63.1982 122.022 63.1982C121.034 63.1982 120.259 62.8633 119.698 62.1934C119.138 61.5234 118.857 60.5938 118.857 59.4043C118.857 58.1921 119.138 57.2464 119.698 56.5674C120.263 55.8883 121.047 55.5488 122.05 55.5488C123.025 55.5488 123.784 55.8747 124.326 56.5264C124.873 57.1735 125.146 58.0804 125.146 59.2471V59.5273H119.712ZM119.726 58.8506L124.278 58.8574C124.242 58.0553 124.023 57.4264 123.622 56.9707C123.226 56.5104 122.697 56.2803 122.036 56.2803C121.371 56.2803 120.828 56.5127 120.409 56.9775C119.994 57.4424 119.767 58.0667 119.726 58.8506ZM127.751 53.6484V55.7334H129.098V56.417H127.751V61.7148C127.751 62.0247 127.79 62.2298 127.867 62.3301C127.945 62.4303 128.084 62.4805 128.284 62.4805C128.371 62.4805 128.469 62.4736 128.578 62.46C128.688 62.4417 128.858 62.4076 129.091 62.3574L129.098 63.0273C128.893 63.082 128.706 63.1208 128.537 63.1436C128.368 63.1709 128.209 63.1846 128.059 63.1846C127.639 63.1846 127.343 63.0798 127.17 62.8701C126.997 62.6559 126.91 62.2708 126.91 61.7148V56.417H125.919V55.7334H126.91V53.6484H127.751ZM130.95 59.377C130.95 60.3522 131.164 61.1087 131.593 61.6465C132.026 62.1842 132.632 62.4531 133.411 62.4531C134.2 62.4531 134.808 62.1865 135.236 61.6533C135.665 61.1201 135.879 60.3613 135.879 59.377C135.879 58.3926 135.665 57.6338 135.236 57.1006C134.808 56.5628 134.2 56.2939 133.411 56.2939C132.632 56.2939 132.026 56.5628 131.593 57.1006C131.164 57.6383 130.95 58.3971 130.95 59.377ZM130.082 59.377C130.082 58.1602 130.371 57.2191 130.95 56.5537C131.534 55.8838 132.354 55.5488 133.411 55.5488C134.473 55.5488 135.296 55.8838 135.879 56.5537C136.467 57.2191 136.761 58.1602 136.761 59.377C136.761 60.5846 136.469 61.5212 135.886 62.1865C135.302 62.8519 134.478 63.1846 133.411 63.1846C132.354 63.1846 131.534 62.8542 130.95 62.1934C130.371 61.528 130.082 60.5892 130.082 59.377ZM139.611 63L137.328 55.7334H138.183L140.056 61.8105L141.724 55.7334H142.66L144.301 61.8105L146.16 55.7334H147.015L144.731 63H143.836L142.161 56.9229L140.493 63H139.611ZM148.45 59.5273V59.5684C148.45 60.457 148.664 61.1657 149.093 61.6943C149.521 62.2184 150.095 62.4805 150.815 62.4805C151.385 62.4805 151.861 62.3278 152.244 62.0225C152.627 61.7126 152.859 61.291 152.941 60.7578H153.782C153.691 61.4961 153.372 62.0885 152.825 62.5352C152.278 62.9772 151.59 63.1982 150.761 63.1982C149.772 63.1982 148.997 62.8633 148.437 62.1934C147.876 61.5234 147.596 60.5938 147.596 59.4043C147.596 58.1921 147.876 57.2464 148.437 56.5674C149.002 55.8883 149.785 55.5488 150.788 55.5488C151.763 55.5488 152.522 55.8747 153.064 56.5264C153.611 57.1735 153.885 58.0804 153.885 59.2471V59.5273H148.45ZM148.464 58.8506L153.017 58.8574C152.98 58.0553 152.761 57.4264 152.36 56.9707C151.964 56.5104 151.435 56.2803 150.774 56.2803C150.109 56.2803 149.567 56.5127 149.147 56.9775C148.733 57.4424 148.505 58.0667 148.464 58.8506Z" fill="#202F46"/>
</svg>
