<svg width="188" height="210" viewBox="0 0 188 210" fill="none" xmlns="http://www.w3.org/2000/svg">
<g clip-path="url(#clip0)">
<path d="M120.824 158.988C135.693 133.058 126.726 99.9836 100.796 85.1145C74.8659 70.2455 41.7918 79.2122 26.9227 105.142C12.0537 131.072 21.0204 164.146 46.9505 179.015C72.8805 193.884 105.955 184.918 120.824 158.988Z" fill="#38B261"/>
<path d="M171.071 86.2473C180.166 70.3866 174.682 50.1561 158.821 41.0612C142.96 31.9662 122.73 37.4509 113.635 53.3115C104.54 69.1722 110.024 89.4027 125.885 98.4976C141.746 107.593 161.976 102.108 171.071 86.2473Z" fill="#B9E9C9"/>
<path d="M113.116 75.2327C120.146 62.9721 115.907 47.3334 103.646 40.3028C91.3852 33.2722 75.7465 37.512 68.7159 49.7726C61.6853 62.0333 65.9251 77.672 78.1857 84.7026C90.4464 91.7332 106.085 87.4934 113.116 75.2327Z" fill="#FB9A54"/>
</g>
<defs>
<clipPath id="clip0">
<rect width="188" height="210" fill="white"/>
</clipPath>
</defs>
</svg>
